<!-- SVG Logo passend zum Galaxy-Design deiner Website -->
<svg width="120" height="120" viewBox="0 0 120 120" fill="none" xmlns="http://www.w3.org/2000/svg" aria-label="Chouifi Logo" role="img">
  <defs>
    <radialGradient id="glowGradient" cx="50%" cy="50%" r="60%" fx="50%" fy="50%">
      <stop offset="0%" stop-color="#00f0ff" stop-opacity="1"/>
      <stop offset="70%" stop-color="#004466" stop-opacity="0.8"/>
      <stop offset="100%" stop-color="#001022" stop-opacity="0"/>
    </radialGradient>
    <filter id="neonGlow" x="-20%" y="-20%" width="140%" height="140%" color-interpolation-filters="sRGB" filterUnits="userSpaceOnUse">
      <feDropShadow dx="0" dy="0" stdDeviation="5" flood-color="#00f0ff" flood-opacity="0.7"/>
      <feDropShadow dx="0" dy="0" stdDeviation="10" flood-color="#00aaff" flood-opacity="0.5"/>
    </filter>
  </defs>

  <!-- Kreis mit Neon-Glow -->
  <circle cx="60" cy="60" r="55" fill="url(#glowGradient)" filter="url(#neonGlow)" />

  <!-- Stilisiertes "C" aus verschlungenen Linien -->
  <path d="M40 60 
           a20 20 0 1 1 40 0
           a10 10 0 1 0 -20 0" 
        stroke="#00f0ff" stroke-width="6" fill="none" stroke-linecap="round" />

  <!-- Sternförmige Akzente -->
  <g stroke="#00e0ff" stroke-width="1.5" stroke-linecap="round" stroke-linejoin="round" filter="url(#neonGlow)">
    <line x1="60" y1="10" x2="60" y2="20" />
    <line x1="60" y1="100" x2="60" y2="110" />
    <line x1="10" y1="60" x2="20" y2="60" />
    <line x1="100" y1="60" x2="110" y2="60" />
    <line x1="35" y1="35" x2="45" y2="45" />
    <line x1="75" y1="75" x2="85" y2="85" />
    <line x1="35" y1="85" x2="45" y2="75" />
    <line x1="75" y1="45" x2="85" y2="35" />
  </g>
</svg>
